<?xml version="1.0" standalone="no"?><!DOCTYPE svg PUBLIC "-//W3C//DTD SVG 1.1//EN" "http://www.w3.org/Graphics/SVG/1.1/DTD/svg11.dtd"><svg class="icon" width="200px" height="200.00px" viewBox="0 0 1024 1024" version="1.1" xmlns="http://www.w3.org/2000/svg"><path d="M1006.592 925.39392c0 54.311936-44.859392 98.60608-100.196352 98.60608H100.196352C45.207552 1024 0 979.994624 0 925.710336V235.505664C0 181.192704 45.125632 137.216 100.79232 137.216h539.76576v49.265664H100.79232c-27.92448 0-50.46272 21.972992-50.46272 49.024v690.204672c0 26.954752 22.550528 49.024 49.866752 49.024h806.199296c27.416576 0 49.866752-22.116352 49.866752-49.340416v-626.944H1006.592v626.944z m0 0c0 54.311936-44.859392 98.60608-100.196352 98.60608H100.196352C45.207552 1024 0 979.994624 0 925.710336V235.505664C0 181.192704 45.125632 137.216 100.79232 137.216h539.76576v49.265664H100.79232c-27.92448 0-50.46272 21.972992-50.46272 49.024v690.204672c0 26.954752 22.550528 49.024 49.866752 49.024h806.199296c27.416576 0 49.866752-22.116352 49.866752-49.340416v-626.944H1006.592v626.944z" fill="#333333" /><path d="M516.465664 517.764096c19.206144-6.542336 50.36032-24.948736 64.864256-38.288384l378.635264-348.248064c19.523584-17.956864 19.503104-47.152128-0.088064-65.272832l-5.225472-4.83328c-20.186112-18.670592-52.790272-18.783232-72.92928-0.260096L503.044096 409.147392c-13.686784 12.589056-31.880192 40.728576-37.430272 57.837568l-24.835072 76.560384 75.685888-25.781248zM989.96224 27.654144l5.225472 4.83328c39.458816 36.49536 39.602176 95.865856-0.011264 132.3008L616.539136 513.03424c-19.570688 18.000896-56.854528 40.067072-82.895872 48.93696l-123.001856 41.897984c-26.315776 8.964096-40.638464-4.017152-32.60416-28.78464l39.502848-121.772032c7.969792-24.57088 30.553088-59.567104 50.295808-77.725696L846.512128 27.301888c39.836672-36.63872 103.842816-36.28032 143.449088 0.352256z" fill="#333333" /></svg>